<?xml version="1.0" encoding="UTF-8" standalone="no"?>
<!-- Generator: Adobe Illustrator 19.0.0, SVG Export Plug-In . SVG Version: 6.00 Build 0)  -->

<svg
   xmlns:dc="http://purl.org/dc/elements/1.1/"
   xmlns:cc="http://creativecommons.org/ns#"
   xmlns:rdf="http://www.w3.org/1999/02/22-rdf-syntax-ns#"
   xmlns:svg="http://www.w3.org/2000/svg"
   xmlns="http://www.w3.org/2000/svg"
   xmlns:sodipodi="http://sodipodi.sourceforge.net/DTD/sodipodi-0.dtd"
   xmlns:inkscape="http://www.inkscape.org/namespaces/inkscape"
   version="1.1"
   id="Layer_1"
   x="0px"
   y="0px"
   viewBox="0 0 492 492"
   style="enable-background:new 0 0 492 492;"
   xml:space="preserve"
   sodipodi:docname="left-arrow.svg"
   inkscape:version="0.92.4 (5da689c313, 2019-01-14)"><metadata
   id="metadata94"><rdf:RDF><cc:Work
       rdf:about=""><dc:format>image/svg+xml</dc:format><dc:type
         rdf:resource="http://purl.org/dc/dcmitype/StillImage" /><dc:title></dc:title></cc:Work></rdf:RDF></metadata><defs
   id="defs92" /><sodipodi:namedview
   pagecolor="#ffffff"
   bordercolor="#666666"
   borderopacity="1"
   objecttolerance="10"
   gridtolerance="10"
   guidetolerance="10"
   inkscape:pageopacity="0"
   inkscape:pageshadow="2"
   inkscape:window-width="1366"
   inkscape:window-height="706"
   id="namedview90"
   showgrid="false"
   inkscape:zoom="1.0914634"
   inkscape:cx="97.117318"
   inkscape:cy="246"
   inkscape:window-x="-8"
   inkscape:window-y="-8"
   inkscape:window-maximized="1"
   inkscape:current-layer="Layer_1" />
<g
   id="g57">
	<g
   id="g55">
		<path
   d="M198.608,246.104L382.664,62.04c5.068-5.056,7.856-11.816,7.856-19.024c0-7.212-2.788-13.968-7.856-19.032l-16.128-16.12    C361.476,2.792,354.712,0,347.504,0s-13.964,2.792-19.028,7.864L109.328,227.008c-5.084,5.08-7.868,11.868-7.848,19.084    c-0.02,7.248,2.76,14.028,7.848,19.112l218.944,218.932c5.064,5.072,11.82,7.864,19.032,7.864c7.208,0,13.964-2.792,19.032-7.864    l16.124-16.12c10.492-10.492,10.492-27.572,0-38.06L198.608,246.104z"
   id="path53" />
	</g>
</g>
<g
   id="g59">
</g>
<g
   id="g61">
</g>
<g
   id="g63">
</g>
<g
   id="g65">
</g>
<g
   id="g67">
</g>
<g
   id="g69">
</g>
<g
   id="g71">
</g>
<g
   id="g73">
</g>
<g
   id="g75">
</g>
<g
   id="g77">
</g>
<g
   id="g79">
</g>
<g
   id="g81">
</g>
<g
   id="g83">
</g>
<g
   id="g85">
</g>
<g
   id="g87">
</g>
<path
   style="fill:#ffcb00;stroke-width:0.91620111;fill-opacity:0"
   d="m 341.59586,490.95609 c -2.19737,-0.45054 -5.90798,-2.05453 -8.24581,-3.56443 -6.60517,-4.26595 -226.70783,-225.13334 -228.7778,-229.57267 -1.02868,-2.20613 -1.84896,-6.4311 -2.06089,-10.61493 -0.64647,-12.76223 -9.41118,-3.06577 116.90189,-129.32935 C 307.94276,29.379862 333.66708,4.1626311 336.88715,2.7164626 c 5.63282,-2.52975784 15.44222,-2.52914835 21.07263,0.00131 2.71428,1.2198735 8.27642,5.9866651 16.27986,13.9519464 9.99353,9.945892 12.47996,12.961097 13.97206,16.943422 2.34287,6.252991 2.30121,12.541836 -0.12705,19.171485 -1.85524,5.065224 -6.14978,9.515907 -95.96178,99.450794 l -94.01964,94.14826 93.58755,93.67297 c 63.52125,63.57922 94.19799,94.90213 95.48771,97.49901 2.88439,5.80776 3.40049,12.81168 1.4158,19.21343 -1.49919,4.83573 -2.86952,6.59335 -13.9438,17.88458 -12.96593,13.21995 -16.67823,15.69829 -24.93652,16.64763 -2.2676,0.26067 -5.92075,0.10533 -8.11811,-0.34521 z"
   id="path3799"
   inkscape:connector-curvature="0" /><path
   style="fill:#ffcb00;fill-opacity:0;stroke-width:0.91620111"
   d="m 340.96476,490.70478 c -2.29251,-0.64263 -5.59083,-2.05834 -7.32961,-3.14603 -1.73878,-1.08768 -53.9163,-52.8118 -115.95007,-114.94249 C 105.49362,260.24952 104.88787,259.62313 103.28142,254.31234 c -2.07884,-6.87247 -1.53813,-13.56816 1.61283,-19.97193 2.0109,-4.08681 21.54269,-24.01492 114.91728,-117.24908 C 298.1403,38.880357 333.41918,4.250369 335.97095,3.0684716 c 5.27842,-2.44479816 14.74039,-2.81973603 20.76701,-0.8229077 4.13091,1.3687155 6.69583,3.3944371 16.58539,13.0987801 13.99334,13.731263 16.39882,17.756466 16.4601,27.543419 0.0745,11.896846 5.19727,6.182224 -98.21359,109.559977 l -93.4743,93.44439 93.76109,93.91874 c 104.98752,105.16404 98.23512,97.52649 97.54942,110.33665 -0.23919,4.4686 -1.02453,7.82801 -2.52393,10.79649 -2.95934,5.85882 -23.1209,25.74451 -28.52096,28.13071 -5.46584,2.41527 -12.30818,3.0564 -17.39642,1.63006 z"
   id="path4606"
   inkscape:connector-curvature="0" /><path
   style="fill:#ffcb00;fill-opacity:0.99497485;stroke-width:0.91620111"
   d="m 340.96476,490.70478 c -2.29251,-0.64263 -5.59083,-2.05834 -7.32961,-3.14603 -1.73878,-1.08768 -53.9163,-52.8118 -115.95007,-114.94249 C 105.49362,260.24952 104.88787,259.62313 103.28142,254.31234 c -2.07884,-6.87247 -1.53813,-13.56816 1.61283,-19.97193 2.0109,-4.08681 21.54269,-24.01492 114.91728,-117.24908 C 298.1403,38.880357 333.41918,4.250369 335.97095,3.0684716 c 5.27842,-2.44479816 14.74039,-2.81973603 20.76701,-0.8229077 4.13091,1.3687155 6.69583,3.3944371 16.58539,13.0987801 13.99334,13.731263 16.39882,17.756466 16.4601,27.543419 0.0745,11.896846 5.19727,6.182224 -98.21359,109.559977 l -93.4743,93.44439 93.76109,93.91874 c 104.98752,105.16404 98.23512,97.52649 97.54942,110.33665 -0.23919,4.4686 -1.02453,7.82801 -2.52393,10.79649 -2.95934,5.85882 -23.1209,25.74451 -28.52096,28.13071 -5.46584,2.41527 -12.30818,3.0564 -17.39642,1.63006 z"
   id="path4608"
   inkscape:connector-curvature="0" /></svg>