<?xml version="1.0" encoding="UTF-8" standalone="no"?>
<!-- Generator: Adobe Illustrator 19.0.0, SVG Export Plug-In . SVG Version: 6.00 Build 0)  -->

<svg
   xmlns:dc="http://purl.org/dc/elements/1.1/"
   xmlns:cc="http://creativecommons.org/ns#"
   xmlns:rdf="http://www.w3.org/1999/02/22-rdf-syntax-ns#"
   xmlns:svg="http://www.w3.org/2000/svg"
   xmlns="http://www.w3.org/2000/svg"
   xmlns:sodipodi="http://sodipodi.sourceforge.net/DTD/sodipodi-0.dtd"
   xmlns:inkscape="http://www.inkscape.org/namespaces/inkscape"
   version="1.1"
   id="Layer_1"
   x="0px"
   y="0px"
   viewBox="0 0 492.004 492.004"
   style="enable-background:new 0 0 492.004 492.004;"
   xml:space="preserve"
   sodipodi:docname="right-arrow.svg"
   inkscape:version="0.92.4 (5da689c313, 2019-01-14)"><metadata
   id="metadata4694"><rdf:RDF><cc:Work
       rdf:about=""><dc:format>image/svg+xml</dc:format><dc:type
         rdf:resource="http://purl.org/dc/dcmitype/StillImage" /></cc:Work></rdf:RDF></metadata><defs
   id="defs4692" /><sodipodi:namedview
   pagecolor="#ffffff"
   bordercolor="#666666"
   borderopacity="1"
   objecttolerance="10"
   gridtolerance="10"
   guidetolerance="10"
   inkscape:pageopacity="0"
   inkscape:pageshadow="2"
   inkscape:window-width="1366"
   inkscape:window-height="706"
   id="namedview4690"
   showgrid="false"
   inkscape:zoom="0.9593418"
   inkscape:cx="287.21874"
   inkscape:cy="276.89597"
   inkscape:window-x="-8"
   inkscape:window-y="-8"
   inkscape:window-maximized="1"
   inkscape:current-layer="Layer_1" />
<g
   id="g4657">
	<g
   id="g4655">
		<path
   d="M382.678,226.804L163.73,7.86C158.666,2.792,151.906,0,144.698,0s-13.968,2.792-19.032,7.86l-16.124,16.12    c-10.492,10.504-10.492,27.576,0,38.064L293.398,245.9l-184.06,184.06c-5.064,5.068-7.86,11.824-7.86,19.028    c0,7.212,2.796,13.968,7.86,19.04l16.124,16.116c5.068,5.068,11.824,7.86,19.032,7.86s13.968-2.792,19.032-7.86L382.678,265    c5.076-5.084,7.864-11.872,7.848-19.088C390.542,238.668,387.754,231.884,382.678,226.804z"
   id="path4653" />
	</g>
</g>
<g
   id="g4659">
</g>
<g
   id="g4661">
</g>
<g
   id="g4663">
</g>
<g
   id="g4665">
</g>
<g
   id="g4667">
</g>
<g
   id="g4669">
</g>
<g
   id="g4671">
</g>
<g
   id="g4673">
</g>
<g
   id="g4675">
</g>
<g
   id="g4677">
</g>
<g
   id="g4679">
</g>
<g
   id="g4681">
</g>
<g
   id="g4683">
</g>
<g
   id="g4685">
</g>
<g
   id="g4687">
</g>
<path
   style="fill:#ffcb00;fill-opacity:0.99497483;stroke-width:1.04238141"
   d="m 137.46967,490.61721 c -5.94488,-1.80785 -10.68767,-5.47999 -21.58978,-16.71606 -13.87921,-14.30436 -16.426361,-21.30513 -12.30426,-33.81789 1.54787,-4.69863 9.75268,-13.20953 96.14631,-99.73311 l 94.45403,-94.59611 -94.49778,-94.59611 C 107.70521,59.089243 105.13638,56.410555 103.53188,50.900129 c -2.05525,-7.058462 -2.05444,-8.750026 0.007,-15.693277 1.42133,-4.786138 3.30489,-7.270468 13.29037,-17.529458 13.00004,-13.3561209 18.63111,-16.85575085 27.14911,-16.87278858 11.97134,-0.023945 3.69002,-7.56153002 127.57683,116.11933458 77.35664,77.22805 114.5659,115.07541 115.96492,117.9536 2.79272,5.74546 2.75018,16.01335 -0.0926,22.3427 -1.64226,3.6565 -26.86054,29.43266 -114.37845,116.9088 -76.25231,76.21589 -113.66823,112.91269 -116.62467,114.38317 -5.20588,2.58933 -14.11075,3.57821 -18.95524,2.105 z"
   id="path4696"
   inkscape:connector-curvature="0" /></svg>